# xmcd CD database file
#
# Track frame offsets:
#	150
#	19722
#	40747
#	60528
#	86385
#	103449
#	125695
#	144461
#	162979
#	182824
#
# Disc length: 2718 seconds
#
# Revision: 0
# Processed by: cddbd v1.5.2PL0 Copyright (c) Steve Scherf et al.
# Submitted via: CDex 1.51
#
DISCID=850a9c0a
DTITLE=Pompei Nights - Rather Die Than Livin' In Boundaries
DYEAR=2011
DGENRE=Blues
TTITLE0=Midnight Mistress
TTITLE1=Shaded
TTITLE2=I Want It
TTITLE3=Out Of Bounds
TTITLE4=Mistreated
TTITLE5=She's Stuck
TTITLE6=Leave It All Up
TTITLE7=High On Adrenaline
TTITLE8=The Scene Is Set
TTITLE9=Painful Heartbeat
EXTD=YEAR: 2011
EXTT0=
EXTT1=
EXTT2=
EXTT3=
EXTT4=
EXTT5=
EXTT6=
EXTT7=
EXTT8=
EXTT9=
PLAYORDER=
